<?xml version="1.0" encoding="UTF-8" standalone="no"?>
<!-- Created with Inkscape (http://www.inkscape.org/) -->

<svg
   xmlns:dc="http://purl.org/dc/elements/1.1/"
   xmlns:cc="http://creativecommons.org/ns#"
   xmlns:rdf="http://www.w3.org/1999/02/22-rdf-syntax-ns#"
   xmlns:svg="http://www.w3.org/2000/svg"
   xmlns="http://www.w3.org/2000/svg"
   xmlns:sodipodi="http://sodipodi.sourceforge.net/DTD/sodipodi-0.dtd"
   xmlns:inkscape="http://www.inkscape.org/namespaces/inkscape"
   width="7.6231513mm"
   height="14.502531mm"
   viewBox="0 0 27.011166 51.386921"
   id="svg5856"
   version="1.1"
   inkscape:version="0.91 r13725"
   sodipodi:docname="bat_empty.svg">
  <defs
     id="defs5858" />
  <sodipodi:namedview
     id="base"
     pagecolor="#ffffff"
     bordercolor="#666666"
     borderopacity="1.0"
     inkscape:pageopacity="0.0"
     inkscape:pageshadow="2"
     inkscape:zoom="2.8"
     inkscape:cx="184.50158"
     inkscape:cy="-157.41204"
     inkscape:document-units="px"
     inkscape:current-layer="layer1"
     showgrid="false"
     fit-margin-top="0"
     fit-margin-left="0"
     fit-margin-right="0"
     fit-margin-bottom="0"
     inkscape:window-width="3198"
     inkscape:window-height="1738"
     inkscape:window-x="0"
     inkscape:window-y="44"
     inkscape:window-maximized="1" />
  <metadata
     id="metadata5861">
    <rdf:RDF>
      <cc:Work
         rdf:about="">
        <dc:format>image/svg+xml</dc:format>
        <dc:type
           rdf:resource="http://purl.org/dc/dcmitype/StillImage" />
        <dc:title></dc:title>
      </cc:Work>
    </rdf:RDF>
  </metadata>
  <g
     inkscape:label="Layer 1"
     inkscape:groupmode="layer"
     id="layer1"
     transform="translate(3796.3628,1530.4741)">
    <g
       style="fill:#657b83;fill-opacity:1"
       id="g16191"
       transform="matrix(0.10891028,0,0,0.10891028,-3808.5507,-1530.4741)">
      <path
         style="fill:#657b83;fill-opacity:1"
         inkscape:connector-curvature="0"
         d="m 359.921,68.052 0,362.946 c 0,22.51 -18.308,40.83 -40.832,40.83 l -166.352,0 c -22.522,0 -40.829,-18.32 -40.829,-40.83 l 0,-362.946 c 0,-22.514 18.312,-40.832 40.829,-40.832 l 34.607,0 0,-27.22 95.27,0 0,27.221 36.475,0 c 22.524,0 40.832,18.317 40.832,40.831 z m -27.216,0 c 0,-7.501 -6.108,-13.611 -13.62,-13.611 l -166.348,0 c -7.508,0 -13.615,6.109 -13.615,13.611 l 0,362.946 c 0,7.499 6.107,13.611 13.615,13.611 l 166.352,0 c 7.508,0 13.616,-6.106 13.616,-13.611 l 0,-362.946 z"
         id="path16193"
         sodipodi:nodetypes="sssssssccccsscssssssscc" />
    </g>
    <g
       style="fill:#657b83;fill-opacity:1"
       id="g16195"
       transform="matrix(0.10891028,0,0,0.10891028,-3808.5507,-1530.4741)" />
    <g
       style="fill:#657b83;fill-opacity:1"
       id="g16197"
       transform="matrix(0.10891028,0,0,0.10891028,-3808.5507,-1530.4741)" />
    <g
       style="fill:#657b83;fill-opacity:1"
       id="g16199"
       transform="matrix(0.10891028,0,0,0.10891028,-3808.5507,-1530.4741)" />
    <g
       style="fill:#657b83;fill-opacity:1"
       id="g16201"
       transform="matrix(0.10891028,0,0,0.10891028,-3808.5507,-1530.4741)" />
    <g
       style="fill:#657b83;fill-opacity:1"
       id="g16203"
       transform="matrix(0.10891028,0,0,0.10891028,-3808.5507,-1530.4741)" />
    <g
       style="fill:#657b83;fill-opacity:1"
       id="g16205"
       transform="matrix(0.10891028,0,0,0.10891028,-3808.5507,-1530.4741)" />
    <g
       style="fill:#657b83;fill-opacity:1"
       id="g16207"
       transform="matrix(0.10891028,0,0,0.10891028,-3808.5507,-1530.4741)" />
    <g
       style="fill:#657b83;fill-opacity:1"
       id="g16209"
       transform="matrix(0.10891028,0,0,0.10891028,-3808.5507,-1530.4741)" />
    <g
       style="fill:#657b83;fill-opacity:1"
       id="g16211"
       transform="matrix(0.10891028,0,0,0.10891028,-3808.5507,-1530.4741)" />
    <g
       style="fill:#657b83;fill-opacity:1"
       id="g16213"
       transform="matrix(0.10891028,0,0,0.10891028,-3808.5507,-1530.4741)" />
    <g
       style="fill:#657b83;fill-opacity:1"
       id="g16215"
       transform="matrix(0.10891028,0,0,0.10891028,-3808.5507,-1530.4741)" />
    <g
       style="fill:#657b83;fill-opacity:1"
       id="g16217"
       transform="matrix(0.10891028,0,0,0.10891028,-3808.5507,-1530.4741)" />
    <g
       style="fill:#657b83;fill-opacity:1"
       id="g16219"
       transform="matrix(0.10891028,0,0,0.10891028,-3808.5507,-1530.4741)" />
    <g
       style="fill:#657b83;fill-opacity:1"
       id="g16221"
       transform="matrix(0.10891028,0,0,0.10891028,-3808.5507,-1530.4741)" />
    <g
       style="fill:#657b83;fill-opacity:1"
       id="g16223"
       transform="matrix(0.10891028,0,0,0.10891028,-3808.5507,-1530.4741)" />
  </g>
</svg>
