<?xml version="1.0" encoding="UTF-8" standalone="no"?>
<!-- Created with Inkscape (http://www.inkscape.org/) -->

<svg
   xmlns:dc="http://purl.org/dc/elements/1.1/"
   xmlns:cc="http://creativecommons.org/ns#"
   xmlns:rdf="http://www.w3.org/1999/02/22-rdf-syntax-ns#"
   xmlns:svg="http://www.w3.org/2000/svg"
   xmlns="http://www.w3.org/2000/svg"
   xmlns:sodipodi="http://sodipodi.sourceforge.net/DTD/sodipodi-0.dtd"
   xmlns:inkscape="http://www.inkscape.org/namespaces/inkscape"
   width="11.859631mm"
   height="17.152742mm"
   viewBox="0 0 42.022317 60.777433"
   id="svg5858"
   version="1.1"
   inkscape:version="0.91 r13725"
   sodipodi:docname="cpu.svg">
  <defs
     id="defs5860" />
  <sodipodi:namedview
     id="base"
     pagecolor="#ffffff"
     bordercolor="#666666"
     borderopacity="1.0"
     inkscape:pageopacity="0.0"
     inkscape:pageshadow="2"
     inkscape:zoom="0.35"
     inkscape:cx="367.43973"
     inkscape:cy="-509.61128"
     inkscape:document-units="px"
     inkscape:current-layer="layer1"
     showgrid="false"
     fit-margin-top="0"
     fit-margin-left="0"
     fit-margin-right="0"
     fit-margin-bottom="0"
     inkscape:window-width="3198"
     inkscape:window-height="1738"
     inkscape:window-x="0"
     inkscape:window-y="44"
     inkscape:window-maximized="1" />
  <metadata
     id="metadata5863">
    <rdf:RDF>
      <cc:Work
         rdf:about="">
        <dc:format>image/svg+xml</dc:format>
        <dc:type
           rdf:resource="http://purl.org/dc/dcmitype/StillImage" />
        <dc:title></dc:title>
      </cc:Work>
    </rdf:RDF>
  </metadata>
  <g
     inkscape:label="Layer 1"
     inkscape:groupmode="layer"
     id="layer1"
     transform="translate(452.43973,38.026509)">
    <g
       id="g4750"
       transform="matrix(0.11938837,0,0,0.11938837,-452.43973,-38.026513)"
       style="fill:#268bd2;fill-opacity:1">
      <g
         id="g4710"
         style="fill:#268bd2;fill-opacity:1">
        <path
           id="path4712"
           d="M 341.981,0 10,0 C 4.478,0 0,4.477 0,10 l 0,263.872 c 0,2.652 1.054,5.196 2.929,7.071 l 68.109,68.109 c 1.875,1.875 4.419,2.929 7.071,2.929 l 263.871,0 c 5.522,0 10,-4.478 10,-10 L 351.98,10 C 351.981,4.477 347.503,0 341.981,0 Z m -227.601,34.785 43.629,0 0,43.629 -43.629,0 0,-43.629 z m 112.905,89.911 0,102.588 -102.588,0 0,-102.588 102.588,0 z m -148.869,112.906 -43.63,0 0,-43.629 43.63,0 0,43.629 z m 0,-79.594 -43.63,0 0,-43.629 43.63,0 0,43.629 z m 0,-79.594 -43.63,0 0,-43.629 43.63,0 0,43.629 z m 79.593,238.781 -43.629,0 0,-43.63 43.629,0 0,43.63 z m 79.593,0 -43.629,0 0,-43.63 43.629,0 0,43.63 z m 0,-238.781 -43.629,0 0,-43.629 43.629,0 0,43.629 z m 79.594,238.781 -43.629,0 0,-43.63 43.629,0 0,43.63 z m 0,-79.593 -43.629,0 0,-43.629 43.629,0 0,43.629 z m 0,-79.594 -43.629,0 0,-43.629 43.629,0 0,43.629 z m 0,-79.594 -43.629,0 0,-43.629 43.629,0 0,43.629 z"
           inkscape:connector-curvature="0"
           style="fill:#268bd2;fill-opacity:1" />
      </g>
      <g
         id="g4714"
         style="fill:#268bd2;fill-opacity:1" />
      <g
         id="g4716"
         style="fill:#268bd2;fill-opacity:1" />
      <g
         id="g4718"
         style="fill:#268bd2;fill-opacity:1" />
      <g
         id="g4720"
         style="fill:#268bd2;fill-opacity:1" />
      <g
         id="g4722"
         style="fill:#268bd2;fill-opacity:1" />
      <g
         id="g4724"
         style="fill:#268bd2;fill-opacity:1" />
      <g
         id="g4726"
         style="fill:#268bd2;fill-opacity:1" />
      <g
         id="g4728"
         style="fill:#268bd2;fill-opacity:1" />
      <g
         id="g4730"
         style="fill:#268bd2;fill-opacity:1" />
      <g
         id="g4732"
         style="fill:#268bd2;fill-opacity:1" />
      <g
         id="g4734"
         style="fill:#268bd2;fill-opacity:1" />
      <g
         id="g4736"
         style="fill:#268bd2;fill-opacity:1" />
      <g
         id="g4738"
         style="fill:#268bd2;fill-opacity:1" />
      <g
         id="g4740"
         style="fill:#268bd2;fill-opacity:1" />
      <g
         id="g4742"
         style="fill:#268bd2;fill-opacity:1" />
    </g>
    <text
       xml:space="preserve"
       style="font-style:normal;font-variant:normal;font-weight:normal;font-stretch:normal;font-size:16.9493885px;line-height:125%;font-family:SquareFont;-inkscape-font-specification:SquareFont;letter-spacing:0px;word-spacing:0px;fill:#268bd2;fill-opacity:1;stroke:none;stroke-width:1px;stroke-linecap:butt;stroke-linejoin:miter;stroke-opacity:1"
       x="-440.36169"
       y="22.750923"
       id="text4493-0"
       sodipodi:linespacing="125%"><tspan
         sodipodi:role="line"
         id="tspan4495-1"
         x="-440.36169"
         y="22.750923">CPU</tspan></text>
  </g>
</svg>
