<?xml version="1.0" encoding="UTF-8" standalone="no"?>
<!-- Created with Inkscape (http://www.inkscape.org/) -->

<svg
   xmlns:dc="http://purl.org/dc/elements/1.1/"
   xmlns:cc="http://creativecommons.org/ns#"
   xmlns:rdf="http://www.w3.org/1999/02/22-rdf-syntax-ns#"
   xmlns:svg="http://www.w3.org/2000/svg"
   xmlns="http://www.w3.org/2000/svg"
   xmlns:sodipodi="http://sodipodi.sourceforge.net/DTD/sodipodi-0.dtd"
   xmlns:inkscape="http://www.inkscape.org/namespaces/inkscape"
   width="9.3399763mm"
   height="16.524767mm"
   viewBox="0 0 33.094404 58.552323"
   id="svg6546"
   version="1.1"
   inkscape:version="0.91 r13725"
   sodipodi:docname="disk.svg">
  <defs
     id="defs6548" />
  <sodipodi:namedview
     id="base"
     pagecolor="#ffffff"
     bordercolor="#666666"
     borderopacity="1.0"
     inkscape:pageopacity="0.0"
     inkscape:pageshadow="2"
     inkscape:zoom="5.6"
     inkscape:cx="62.556844"
     inkscape:cy="17.975401"
     inkscape:document-units="px"
     inkscape:current-layer="layer1"
     showgrid="false"
     fit-margin-top="0"
     fit-margin-left="0"
     fit-margin-right="0"
     fit-margin-bottom="0"
     inkscape:window-width="3198"
     inkscape:window-height="1738"
     inkscape:window-x="0"
     inkscape:window-y="44"
     inkscape:window-maximized="1" />
  <metadata
     id="metadata6551">
    <rdf:RDF>
      <cc:Work
         rdf:about="">
        <dc:format>image/svg+xml</dc:format>
        <dc:type
           rdf:resource="http://purl.org/dc/dcmitype/StillImage" />
        <dc:title></dc:title>
      </cc:Work>
    </rdf:RDF>
  </metadata>
  <g
     inkscape:label="Layer 1"
     inkscape:groupmode="layer"
     id="layer1"
     transform="translate(-229.16708,-263.08604)">
    <g
       id="g4447"
       transform="matrix(1.9723704,0,0,1.828371,222.73321,263.08604)"
       style="fill:#cb4b16;fill-opacity:1">
      <g
         id="g4403"
         style="fill:#cb4b16;fill-opacity:1">
        <g
           id="g4405"
           style="fill:#cb4b16;fill-opacity:1">
          <path
             id="path4407"
             d="m 3.262,0 0,23.303 16.779,0 L 20.041,0 3.262,0 Z m 8.048,21.22 -6.232,0 0,-6.562 2.178,2.018 c -0.719,0.315 -1.223,1.031 -1.223,1.866 0,1.122 0.912,2.035 2.037,2.035 1.125,0 2.036,-0.912 2.036,-2.035 0,-0.056 -0.012,-0.108 -0.017,-0.164 0.002,-0.002 0.004,-0.003 0.006,-0.005 l 1.215,0.021 0,2.826 z M 9.204,18.384 c 0.004,0.054 0.029,0.103 0.029,0.158 0,0.642 -0.521,1.162 -1.163,1.162 -0.644,0 -1.165,-0.521 -1.165,-1.162 0,-0.646 0.521,-1.165 1.165,-1.165 0.104,0 0.196,0.034 0.293,0.059 1.843,-1.41 5.321,-4.011 5.39,-3.936 0.059,0.068 -2.941,3.223 -4.549,4.884 z M 12.65,15.73 c 2.215,-2.42 1.977,-2.707 1.819,-2.881 -0.394,-0.436 -0.394,-0.436 -3.991,2.252 L 9.86,15.573 C 6.908,14.785 4.727,12.1 4.727,8.898 c 0,-3.821 3.098,-6.919 6.915,-6.919 3.823,0 6.918,3.099 6.918,6.919 0,3.475 -2.566,6.344 -5.91,6.832 z"
             inkscape:connector-curvature="0"
             style="fill:#cb4b16;fill-opacity:1" />
          <path
             id="path4409"
             d="m 11.642,6.84 c -1.134,0 -2.055,0.923 -2.055,2.058 0,1.136 0.922,2.054 2.055,2.054 1.14,0 2.058,-0.919 2.058,-2.054 C 13.699,7.764 12.779,6.841 11.642,6.84 Z"
             inkscape:connector-curvature="0"
             style="fill:#cb4b16;fill-opacity:1" />
        </g>
      </g>
      <g
         id="g4411"
         style="fill:#cb4b16;fill-opacity:1" />
      <g
         id="g4413"
         style="fill:#cb4b16;fill-opacity:1" />
      <g
         id="g4415"
         style="fill:#cb4b16;fill-opacity:1" />
      <g
         id="g4417"
         style="fill:#cb4b16;fill-opacity:1" />
      <g
         id="g4419"
         style="fill:#cb4b16;fill-opacity:1" />
      <g
         id="g4421"
         style="fill:#cb4b16;fill-opacity:1" />
      <g
         id="g4423"
         style="fill:#cb4b16;fill-opacity:1" />
      <g
         id="g4425"
         style="fill:#cb4b16;fill-opacity:1" />
      <g
         id="g4427"
         style="fill:#cb4b16;fill-opacity:1" />
      <g
         id="g4429"
         style="fill:#cb4b16;fill-opacity:1" />
      <g
         id="g4431"
         style="fill:#cb4b16;fill-opacity:1" />
      <g
         id="g4433"
         style="fill:#cb4b16;fill-opacity:1" />
      <g
         id="g4435"
         style="fill:#cb4b16;fill-opacity:1" />
      <g
         id="g4437"
         style="fill:#cb4b16;fill-opacity:1" />
      <g
         id="g4439"
         style="fill:#cb4b16;fill-opacity:1" />
    </g>
    <text
       xml:space="preserve"
       style="font-style:normal;font-variant:normal;font-weight:normal;font-stretch:normal;font-size:16.9493885px;line-height:125%;font-family:SquareFont;-inkscape-font-specification:SquareFont;letter-spacing:0px;word-spacing:0px;fill:#cb4b16;fill-opacity:1;stroke:none;stroke-width:1px;stroke-linecap:butt;stroke-linejoin:miter;stroke-opacity:1"
       x="243.43816"
       y="321.63837"
       id="text4493"
       sodipodi:linespacing="125%"><tspan
         sodipodi:role="line"
         id="tspan4495"
         x="243.43816"
         y="321.63837">HD</tspan></text>
  </g>
</svg>
