<?xml version="1.0" encoding="UTF-8" standalone="no"?>
<!-- Created with Inkscape (http://www.inkscape.org/) -->

<svg
   xmlns:dc="http://purl.org/dc/elements/1.1/"
   xmlns:cc="http://creativecommons.org/ns#"
   xmlns:rdf="http://www.w3.org/1999/02/22-rdf-syntax-ns#"
   xmlns:svg="http://www.w3.org/2000/svg"
   xmlns="http://www.w3.org/2000/svg"
   xmlns:sodipodi="http://sodipodi.sourceforge.net/DTD/sodipodi-0.dtd"
   xmlns:inkscape="http://www.inkscape.org/namespaces/inkscape"
   width="8.5556364mm"
   height="16.568583mm"
   viewBox="0 0 30.315247 58.707576"
   id="svg6529"
   version="1.1"
   inkscape:version="0.91 r13725"
   sodipodi:docname="memory.svg">
  <defs
     id="defs6531" />
  <sodipodi:namedview
     id="base"
     pagecolor="#ffffff"
     bordercolor="#666666"
     borderopacity="1.0"
     inkscape:pageopacity="0.0"
     inkscape:pageshadow="2"
     inkscape:zoom="2.8"
     inkscape:cx="-25.235636"
     inkscape:cy="8.3490333"
     inkscape:document-units="px"
     inkscape:current-layer="layer1"
     showgrid="false"
     fit-margin-top="0"
     fit-margin-left="0"
     fit-margin-right="0"
     fit-margin-bottom="0"
     inkscape:window-width="3198"
     inkscape:window-height="1738"
     inkscape:window-x="0"
     inkscape:window-y="44"
     inkscape:window-maximized="1" />
  <metadata
     id="metadata6534">
    <rdf:RDF>
      <cc:Work
         rdf:about="">
        <dc:format>image/svg+xml</dc:format>
        <dc:type
           rdf:resource="http://purl.org/dc/dcmitype/StillImage" />
        <dc:title></dc:title>
      </cc:Work>
    </rdf:RDF>
  </metadata>
  <g
     inkscape:label="Layer 1"
     inkscape:groupmode="layer"
     id="layer1"
     transform="translate(-1064.8424,-603.00843)">
    <g
       id="g6173"
       transform="matrix(0.08449659,0,0,0.09138561,1055.2098,603.00843)"
       style="fill:#2aa198;fill-opacity:1">
      <g
         id="g6129"
         style="fill:#2aa198;fill-opacity:1">
        <g
           id="g6131"
           style="fill:#2aa198;fill-opacity:1">
          <g
             id="g6133"
             style="fill:#2aa198;fill-opacity:1">
            <path
               id="path6135"
               d="m 353.451,213.05 5.34,0 0,-173.724 -52.722,0 0,-39.326 -172.626,0 0.683,6.926 c 0,7.608 -6.21,13.778 -13.745,13.794 L 114,20.297 l 0,433.749 5.666,-0.301 c 0.317,0 0.634,-0.049 0.675,-0.073 7.6,0 13.778,6.17 13.778,13.77 l 0,5.349 171.936,0 0,-27.401 52.722,0 0,-185.64 -5.324,0 c -12.876,0 -23.345,-10.494 -23.345,-23.353 -0.003,-12.886 10.467,-23.347 23.343,-23.347 z m -92.341,223.032 -108.37,0 0,-47.885 108.37,0 0,47.885 z m 0,-63.566 -108.37,0 0,-47.885 108.37,0 0,47.885 z m 0,-66.654 -108.37,0 0,-47.91 108.37,0 0,47.91 z m 0,-88.406 -108.37,0 0,-47.877 108.37,0 0,47.877 z m 0,-63.566 -108.37,0 0,-47.894 108.37,0 0,47.894 z m 0,-66.67 -108.37,0 0,-47.894 108.37,0 0,47.894 z m 87,182.771 0,164.717 -42.041,0 0,-31.165 31.01,0 0,-10.681 -31.01,0 0,-11.803 31.01,0 0,-10.665 -31.01,0 0,-11.437 31.01,0 0,-10.681 -31.01,0 0,-10.242 31.01,0 0,-10.681 -31.01,0 0,-11.803 31.01,0 0,-10.68 -31.01,0 0,-11.404 31.01,0 0,-10.681 -31.01,0 0,-87.382 31.01,0 0,-10.681 -31.01,0 0,-11.811 31.01,0 0,-10.673 -31.01,0 0,-11.421 31.01,0 0,-10.673 -31.01,0 0,-10.266 31.01,0 0,-10.681 -31.01,0 0,-11.795 31.01,0 0,-10.68 -31.01,0 0,-11.413 31.01,0 0,-10.681 -31.01,0 0,-24.605 42.041,0 0,152.744 c -16.493,2.593 -28.702,16.704 -28.702,33.636 0,16.916 12.209,31.011 28.702,33.588 z"
               style="fill:#2aa198;fill-opacity:1"
               inkscape:connector-curvature="0" />
          </g>
        </g>
      </g>
      <g
         id="g6137"
         style="fill:#2aa198;fill-opacity:1" />
      <g
         id="g6139"
         style="fill:#2aa198;fill-opacity:1" />
      <g
         id="g6141"
         style="fill:#2aa198;fill-opacity:1" />
      <g
         id="g6143"
         style="fill:#2aa198;fill-opacity:1" />
      <g
         id="g6145"
         style="fill:#2aa198;fill-opacity:1" />
      <g
         id="g6147"
         style="fill:#2aa198;fill-opacity:1" />
      <g
         id="g6149"
         style="fill:#2aa198;fill-opacity:1" />
      <g
         id="g6151"
         style="fill:#2aa198;fill-opacity:1" />
      <g
         id="g6153"
         style="fill:#2aa198;fill-opacity:1" />
      <g
         id="g6155"
         style="fill:#2aa198;fill-opacity:1" />
      <g
         id="g6157"
         style="fill:#2aa198;fill-opacity:1" />
      <g
         id="g6159"
         style="fill:#2aa198;fill-opacity:1" />
      <g
         id="g6161"
         style="fill:#2aa198;fill-opacity:1" />
      <g
         id="g6163"
         style="fill:#2aa198;fill-opacity:1" />
      <g
         id="g6165"
         style="fill:#2aa198;fill-opacity:1" />
    </g>
    <text
       xml:space="preserve"
       style="font-style:normal;font-variant:normal;font-weight:normal;font-stretch:normal;font-size:16.9493885px;line-height:125%;font-family:SquareFont;-inkscape-font-specification:SquareFont;letter-spacing:0px;word-spacing:0px;fill:#2aa198;fill-opacity:1;stroke:none;stroke-width:1px;stroke-linecap:butt;stroke-linejoin:miter;stroke-opacity:1"
       x="1064.5197"
       y="661.716"
       id="text4493-0-5"
       sodipodi:linespacing="125%"><tspan
         sodipodi:role="line"
         id="tspan4495-1-1"
         x="1064.5197"
         y="661.716">MEM</tspan></text>
  </g>
</svg>
