<?xml version="1.0" encoding="UTF-8" standalone="no"?>
<!-- Created with Inkscape (http://www.inkscape.org/) -->

<svg
   xmlns:dc="http://purl.org/dc/elements/1.1/"
   xmlns:cc="http://creativecommons.org/ns#"
   xmlns:rdf="http://www.w3.org/1999/02/22-rdf-syntax-ns#"
   xmlns:svg="http://www.w3.org/2000/svg"
   xmlns="http://www.w3.org/2000/svg"
   xmlns:sodipodi="http://sodipodi.sourceforge.net/DTD/sodipodi-0.dtd"
   xmlns:inkscape="http://www.inkscape.org/namespaces/inkscape"
   width="13.210975mm"
   height="16.684038mm"
   viewBox="0 0 46.81054 59.11667"
   id="svg8043"
   version="1.1"
   inkscape:version="0.91 r13725"
   sodipodi:docname="net.svg">
  <defs
     id="defs8045" />
  <sodipodi:namedview
     id="base"
     pagecolor="#ffffff"
     bordercolor="#666666"
     borderopacity="1.0"
     inkscape:pageopacity="0.0"
     inkscape:pageshadow="2"
     inkscape:zoom="0.35"
     inkscape:cx="69.83384"
     inkscape:cy="-807.58453"
     inkscape:document-units="px"
     inkscape:current-layer="layer1"
     showgrid="false"
     fit-margin-top="0"
     fit-margin-left="0"
     fit-margin-right="0"
     fit-margin-bottom="0"
     inkscape:window-width="3198"
     inkscape:window-height="1738"
     inkscape:window-x="0"
     inkscape:window-y="44"
     inkscape:window-maximized="1" />
  <metadata
     id="metadata8048">
    <rdf:RDF>
      <cc:Work
         rdf:about="">
        <dc:format>image/svg+xml</dc:format>
        <dc:type
           rdf:resource="http://purl.org/dc/dcmitype/StillImage" />
        <dc:title></dc:title>
      </cc:Work>
    </rdf:RDF>
  </metadata>
  <g
     inkscape:label="Layer 1"
     inkscape:groupmode="layer"
     id="layer1"
     transform="translate(154.83384,334.33899)">
    <g
       id="g7423"
       transform="matrix(0.65014641,0,0,0.65014641,-154.83384,-336.93958)"
       style="fill:#b58900;fill-opacity:1">
      <g
         id="_x37_7_Essential_Icons_60_"
         style="fill:#b58900;fill-opacity:1">
        <path
           d="m 44,24 -16,0 c -1.1,0 -2,0.9 -2,2 l 0,40 c 0,1.1 0.9,2 2,2 l 16,0 c 1.1,0 2,-0.9 2,-2 l 0,-40 c 0,-1.1 -0.9,-2 -2,-2 z m -2,40 -12,0 0,-36 12,0 0,36 z M 18,44 2,44 c -1.1,0 -2,0.9 -2,2 l 0,20 c 0,1.1 0.9,2 2,2 l 16,0 c 1.1,0 2,-0.9 2,-2 l 0,-20 c 0,-1.1 -0.9,-2 -2,-2 z M 16,64 4,64 4,48 16,48 16,64 Z M 70,4 54,4 c -1.1,0 -2,0.9 -2,2 l 0,60 c 0,1.1 0.9,2 2,2 l 16,0 c 1.1,0 2,-0.9 2,-2 L 72,6 C 72,4.9 71.1,4 70,4 Z m -2,60 -12,0 0,-56 12,0 0,56 z"
           id="Signal"
           inkscape:connector-curvature="0"
           style="fill:#b58900;fill-opacity:1" />
      </g>
      <g
         id="g7387"
         style="fill:#b58900;fill-opacity:1" />
      <g
         id="g7389"
         style="fill:#b58900;fill-opacity:1" />
      <g
         id="g7391"
         style="fill:#b58900;fill-opacity:1" />
      <g
         id="g7393"
         style="fill:#b58900;fill-opacity:1" />
      <g
         id="g7395"
         style="fill:#b58900;fill-opacity:1" />
      <g
         id="g7397"
         style="fill:#b58900;fill-opacity:1" />
      <g
         id="g7399"
         style="fill:#b58900;fill-opacity:1" />
      <g
         id="g7401"
         style="fill:#b58900;fill-opacity:1" />
      <g
         id="g7403"
         style="fill:#b58900;fill-opacity:1" />
      <g
         id="g7405"
         style="fill:#b58900;fill-opacity:1" />
      <g
         id="g7407"
         style="fill:#b58900;fill-opacity:1" />
      <g
         id="g7409"
         style="fill:#b58900;fill-opacity:1" />
      <g
         id="g7411"
         style="fill:#b58900;fill-opacity:1" />
      <g
         id="g7413"
         style="fill:#b58900;fill-opacity:1" />
      <g
         id="g7415"
         style="fill:#b58900;fill-opacity:1" />
    </g>
    <text
       xml:space="preserve"
       style="font-style:normal;font-variant:normal;font-weight:normal;font-stretch:normal;font-size:16.9493885px;line-height:125%;font-family:SquareFont;-inkscape-font-specification:SquareFont;letter-spacing:0px;word-spacing:0px;fill:#b58900;fill-opacity:1;stroke:none;stroke-width:1px;stroke-linecap:butt;stroke-linejoin:miter;stroke-opacity:1"
       x="-137.22517"
       y="-275.22232"
       id="text4493-0-50"
       sodipodi:linespacing="125%"><tspan
         sodipodi:role="line"
         id="tspan4495-1-2"
         x="-137.22517"
         y="-275.22232">NET</tspan></text>
  </g>
</svg>
