<?xml version="1.0" encoding="UTF-8" standalone="no"?>
<!-- Created with Inkscape (http://www.inkscape.org/) -->

<svg
   xmlns:dc="http://purl.org/dc/elements/1.1/"
   xmlns:cc="http://creativecommons.org/ns#"
   xmlns:rdf="http://www.w3.org/1999/02/22-rdf-syntax-ns#"
   xmlns:svg="http://www.w3.org/2000/svg"
   xmlns="http://www.w3.org/2000/svg"
   xmlns:sodipodi="http://sodipodi.sourceforge.net/DTD/sodipodi-0.dtd"
   xmlns:inkscape="http://www.inkscape.org/namespaces/inkscape"
   width="7.5220203mm"
   height="6.734817mm"
   viewBox="0 0 26.652828 23.863525"
   id="svg7215"
   version="1.1"
   inkscape:version="0.91 r13725"
   sodipodi:docname="warning.svg">
  <defs
     id="defs7217" />
  <sodipodi:namedview
     id="base"
     pagecolor="#ffffff"
     bordercolor="#666666"
     borderopacity="1.0"
     inkscape:pageopacity="0.0"
     inkscape:pageshadow="2"
     inkscape:zoom="11.2"
     inkscape:cx="18.514367"
     inkscape:cy="10.182694"
     inkscape:document-units="px"
     inkscape:current-layer="layer1"
     showgrid="false"
     fit-margin-top="0"
     fit-margin-left="0"
     fit-margin-right="0"
     fit-margin-bottom="0"
     inkscape:window-width="3198"
     inkscape:window-height="1738"
     inkscape:window-x="0"
     inkscape:window-y="44"
     inkscape:window-maximized="1" />
  <metadata
     id="metadata7220">
    <rdf:RDF>
      <cc:Work
         rdf:about="">
        <dc:format>image/svg+xml</dc:format>
        <dc:type
           rdf:resource="http://purl.org/dc/dcmitype/StillImage" />
        <dc:title></dc:title>
      </cc:Work>
    </rdf:RDF>
  </metadata>
  <g
     inkscape:label="Layer 1"
     inkscape:groupmode="layer"
     id="layer1"
     transform="translate(610.46927,148.14099)">
    <g
       id="g11375-0-6"
       transform="translate(-883.8459,-686.4337)">
      <g
         style="fill:#c3af00;fill-opacity:1;stroke:#000000;stroke-opacity:1"
         transform="matrix(1.2906877,0,0,1.2906877,274.01688,537.53895)"
         id="g11348-0-6">
        <g
           style="fill:#c3af00;fill-opacity:1;stroke:#000000;stroke-opacity:1"
           id="g11308-0-0">
          <path
             inkscape:connector-curvature="0"
             style="fill:#c3af00;fill-opacity:1;stroke:#000000;stroke-opacity:1"
             d="M 19,12.971 13.088,3.117 C 12.312,1.824 11.125,1.084 9.829,1.084 8.533,1.084 7.346,1.824 6.57,3.115 l -5.912,9.856 c -0.786,1.309 -0.872,2.705 -0.235,3.83 0.636,1.126 1.878,1.772 3.406,1.772 l 12,0 c 1.528,0 2.77,-0.646 3.406,-1.771 0.637,-1.125 0.551,-2.521 -0.235,-3.831 z m -9.171,2.151 c -0.854,0 -1.55,-0.695 -1.55,-1.549 0,-0.855 0.695,-1.551 1.55,-1.551 0.855,0 1.55,0.696 1.55,1.551 0,0.854 -0.696,1.549 -1.55,1.549 z m 1.633,-7.424 c -0.011,0.031 -1.401,3.468 -1.401,3.468 -0.038,0.094 -0.13,0.156 -0.231,0.156 -0.101,0 -0.193,-0.062 -0.231,-0.156 L 8.208,7.728 C 8.118,7.495 8.079,7.285 8.079,7.073 c 0,-0.965 0.785,-1.75 1.75,-1.75 0.965,0 1.75,0.785 1.75,1.75 0,0.212 -0.039,0.422 -0.117,0.625 z"
             id="path11310-8-6" />
        </g>
        <g
           style="fill:#c3af00;fill-opacity:1;stroke:#000000;stroke-opacity:1"
           id="g11312-2-2" />
        <g
           style="fill:#c3af00;fill-opacity:1;stroke:#000000;stroke-opacity:1"
           id="g11314-2-5" />
        <g
           style="fill:#c3af00;fill-opacity:1;stroke:#000000;stroke-opacity:1"
           id="g11316-2-2" />
        <g
           style="fill:#c3af00;fill-opacity:1;stroke:#000000;stroke-opacity:1"
           id="g11318-0-0" />
        <g
           style="fill:#c3af00;fill-opacity:1;stroke:#000000;stroke-opacity:1"
           id="g11320-1-0" />
        <g
           style="fill:#c3af00;fill-opacity:1;stroke:#000000;stroke-opacity:1"
           id="g11322-9-3" />
        <g
           style="fill:#c3af00;fill-opacity:1;stroke:#000000;stroke-opacity:1"
           id="g11324-1-4" />
        <g
           style="fill:#c3af00;fill-opacity:1;stroke:#000000;stroke-opacity:1"
           id="g11326-7-6" />
        <g
           style="fill:#c3af00;fill-opacity:1;stroke:#000000;stroke-opacity:1"
           id="g11328-1-1" />
        <g
           style="fill:#c3af00;fill-opacity:1;stroke:#000000;stroke-opacity:1"
           id="g11330-6-5" />
        <g
           style="fill:#c3af00;fill-opacity:1;stroke:#000000;stroke-opacity:1"
           id="g11332-9-0" />
        <g
           style="fill:#c3af00;fill-opacity:1;stroke:#000000;stroke-opacity:1"
           id="g11334-0-2" />
        <g
           style="fill:#c3af00;fill-opacity:1;stroke:#000000;stroke-opacity:1"
           id="g11336-6-0" />
        <g
           style="fill:#c3af00;fill-opacity:1;stroke:#000000;stroke-opacity:1"
           id="g11338-3-5" />
        <g
           style="fill:#c3af00;fill-opacity:1;stroke:#000000;stroke-opacity:1"
           id="g11340-2-9" />
      </g>
      <path
         inkscape:connector-curvature="0"
         id="path11369-4-0"
         d="m 286.31081,549.7519 c -1.24099,-2.99463 -1.28479,-3.19631 -0.84112,-3.87342 0.76226,-1.16336 2.6782,-0.64326 2.6782,0.72703 0,0.47745 -1.12519,3.61642 -1.39942,3.90401 -0.0474,0.0497 -0.24437,-0.29119 -0.43766,-0.75762 z"
         style="fill:#000000;fill-opacity:1;stroke:#000000;stroke-width:0.75761443;stroke-linejoin:round;stroke-miterlimit:4;stroke-dasharray:none;stroke-opacity:1" />
      <path
         inkscape:connector-curvature="0"
         id="path11371-6-7"
         d="m 285.87504,555.84866 c -0.60799,-0.60799 -0.61786,-0.73674 -0.11195,-1.45904 0.42769,-0.61061 1.34704,-0.74039 1.82921,-0.25822 0.42496,0.42496 0.3772,1.35449 -0.0938,1.82549 -0.53203,0.53203 -1.01542,0.49981 -1.62346,-0.10823 z"
         style="fill:#000000;fill-opacity:1;stroke:#000000;stroke-width:0.75761443;stroke-linejoin:round;stroke-miterlimit:4;stroke-dasharray:none;stroke-opacity:1" />
    </g>
  </g>
</svg>
